# Blender v2.92.0 OBJ File: 'rock.blend'
# www.blender.org
mtllib rock.mtl
o Cube
v 0.908157 0.795788 -0.703964
v 0.691248 -0.687698 -0.571685
v 0.917241 0.765794 0.575335
v 0.720400 -0.597584 0.716277
v -0.648190 0.615593 -0.806132
v -0.782739 -0.462913 -0.709441
v -0.642842 0.742843 0.753606
v -0.582030 -0.622899 0.751548
vt 0.625000 0.500000
vt 0.875000 0.500000
vt 0.875000 0.750000
vt 0.625000 0.750000
vt 0.375000 0.750000
vt 0.625000 1.000000
vt 0.375000 1.000000
vt 0.375000 0.000000
vt 0.625000 0.000000
vt 0.625000 0.250000
vt 0.375000 0.250000
vt 0.125000 0.500000
vt 0.375000 0.500000
vt 0.125000 0.750000
vn -0.0658 0.9973 -0.0338
vn 0.0735 0.0470 0.9962
vn -0.9971 0.0327 0.0684
vn -0.0709 -0.9973 -0.0194
vn 0.9894 -0.1449 -0.0113
vn 0.0771 -0.0992 -0.9921
usemtl Material
s off
f 1/1/1 5/2/1 7/3/1 3/4/1
f 4/5/2 3/4/2 7/6/2 8/7/2
f 8/8/3 7/9/3 5/10/3 6/11/3
f 6/12/4 2/13/4 4/5/4 8/14/4
f 2/13/5 1/1/5 3/4/5 4/5/5
f 6/11/6 5/10/6 1/1/6 2/13/6
